<svg width="32" height="32" viewBox="0 0 32 32" fill="none" xmlns="http://www.w3.org/2000/svg">
<g clip-path="url(#clip0_3124_1228)">
<rect width="32" height="32" fill="white"/>
<path d="M4.57153 16C10.8834 16 16.0001 10.8833 16.0001 4.57141C16.0001 10.8833 21.1168 16 27.4287 16C21.1168 16 16.0001 21.1167 16.0001 27.4286C16.0001 21.1167 10.8834 16 4.57153 16Z" fill="#131313"/>
<path opacity="0.3" d="M32 16C32 24.8366 24.8366 32 16 32M32 16C32 7.16344 24.8366 0 16 0M32 16C32 11.5817 24.8366 8 16 8C7.16344 8 -1.93129e-07 11.5817 0 16M32 16C32 20.4183 24.8366 24 16 24C7.16344 24 1.93129e-07 20.4183 0 16M16 32C7.16344 32 0 24.8366 0 16M16 32C20.4183 32 24 24.8366 24 16C24 7.16344 20.4183 0 16 0M16 32C11.5817 32 8 24.8366 8 16C8 7.16344 11.5817 0 16 0M0 16C0 7.16344 7.16344 0 16 0" stroke="#131313"/>
</g>
<defs>
<clipPath id="clip0_3124_1228">
<rect width="32" height="32" fill="white"/>
</clipPath>
</defs>
</svg>
